<svg width="116" height="33" viewBox="0 0 116 33" fill="none" xmlns="http://www.w3.org/2000/svg">
<path d="M0.202549 32V0.859999H12.5504C14.6553 0.859999 16.378 1.28529 17.7188 2.13587C19.074 2.97204 20.0759 4.04608 20.7247 5.358C21.3878 6.66992 21.7194 8.02508 21.7194 9.4235C21.7194 11.1391 21.3086 12.5952 20.4868 13.7917C19.6795 14.9883 18.5766 15.7957 17.1782 16.2137V15.1325C19.1388 15.5794 20.6238 16.5093 21.6329 17.9221C22.6565 19.335 23.1683 20.9424 23.1683 22.7445C23.1683 24.5898 22.8151 26.2045 22.1087 27.5885C21.4023 28.9725 20.3498 30.0537 18.9514 30.8322C17.5674 31.6107 15.8518 32 13.8047 32H0.202549ZM5.47905 27.0911H13.1559C14.0642 27.0911 14.8787 26.9109 15.5996 26.5505C16.3204 26.1757 16.8826 25.6567 17.2863 24.9935C17.7044 24.3159 17.9134 23.5158 17.9134 22.5931C17.9134 21.757 17.7332 21.0073 17.3728 20.3441C17.0124 19.681 16.4862 19.1547 15.7942 18.7655C15.1022 18.3618 14.2732 18.16 13.3073 18.16H5.47905V27.0911ZM5.47905 13.2944H12.4855C13.2352 13.2944 13.9056 13.1502 14.4967 12.8619C15.0878 12.5735 15.5563 12.1482 15.9023 11.586C16.2483 11.0237 16.4213 10.3317 16.4213 9.51C16.4213 8.42875 16.0753 7.52771 15.3833 6.80687C14.6913 6.08604 13.7254 5.72562 12.4855 5.72562H5.47905V13.2944ZM37.8023 32.6488C35.4668 32.6488 33.4269 32.1225 31.6825 31.0701C29.9381 30.0177 28.5829 28.5688 27.617 26.7235C26.6655 24.8637 26.1897 22.7301 26.1897 20.3225C26.1897 17.8717 26.6799 15.7236 27.6602 13.8782C28.6406 12.0329 30.0029 10.5912 31.7473 9.55325C33.4918 8.51525 35.5101 7.99625 37.8023 7.99625C40.1523 7.99625 42.1994 8.52246 43.9438 9.57487C45.6883 10.6273 47.0434 12.0834 48.0093 13.9431C48.9753 15.7885 49.4582 17.9149 49.4582 20.3225C49.4582 22.7445 48.9681 24.8854 47.9877 26.7451C47.0218 28.5905 45.6666 30.0393 43.9222 31.0917C42.1778 32.1297 40.1378 32.6488 37.8023 32.6488ZM37.8023 27.7615C39.8783 27.7615 41.4209 27.0695 42.4301 25.6855C43.4393 24.3015 43.9438 22.5138 43.9438 20.3225C43.9438 18.0591 43.4321 16.257 42.4085 14.9162C41.3849 13.5611 39.8495 12.8835 37.8023 12.8835C36.4039 12.8835 35.2506 13.2007 34.3423 13.835C33.4485 14.4549 32.7853 15.3271 32.3528 16.4516C31.9203 17.5617 31.7041 18.852 31.7041 20.3225C31.7041 22.5859 32.2159 24.3952 33.2395 25.7504C34.2775 27.0911 35.7984 27.7615 37.8023 27.7615ZM54.6553 32V0.211249H59.8669V32H54.6553ZM75.7083 32.6488C73.5602 32.6488 71.686 32.1081 70.0858 31.0269C68.4855 29.9456 67.2457 28.4751 66.3663 26.6154C65.4868 24.7556 65.0471 22.658 65.0471 20.3225C65.0471 17.9582 65.4868 15.8533 66.3663 14.008C67.2601 12.1482 68.5216 10.685 70.1506 9.61812C71.7797 8.53687 73.6971 7.99625 75.9029 7.99625C78.1231 7.99625 79.9828 8.53687 81.4821 9.61812C82.9959 10.685 84.142 12.1482 84.9205 14.008C85.699 15.8677 86.0883 17.9726 86.0883 20.3225C86.0883 22.6436 85.699 24.7412 84.9205 26.6154C84.142 28.4751 82.9815 29.9456 81.4389 31.0269C79.8963 32.1081 77.9861 32.6488 75.7083 32.6488ZM76.5084 27.9777C77.9068 27.9777 79.0313 27.6606 79.8819 27.0262C80.7469 26.3775 81.374 25.4765 81.7633 24.3231C82.1669 23.1698 82.3688 21.8362 82.3688 20.3225C82.3688 18.7943 82.1669 17.4608 81.7633 16.3219C81.374 15.1685 80.7613 14.2747 79.9251 13.6404C79.089 12.9916 78.0077 12.6672 76.6814 12.6672C75.283 12.6672 74.1296 13.0132 73.2214 13.7052C72.3131 14.3828 71.6428 15.3055 71.2103 16.4732C70.7778 17.6266 70.5615 18.9097 70.5615 20.3225C70.5615 21.7497 70.7706 23.0472 71.1886 24.215C71.6211 25.3683 72.2771 26.2838 73.1565 26.9614C74.0359 27.639 75.1532 27.9777 76.5084 27.9777ZM82.3688 32V15.6082H81.72V0.859999H86.9749V32H82.3688ZM103.353 32.6488C101.018 32.6488 98.9777 32.1225 97.2332 31.0701C95.4888 30.0177 94.1337 28.5688 93.1677 26.7235C92.2162 24.8637 91.7405 22.7301 91.7405 20.3225C91.7405 17.8717 92.2307 15.7236 93.211 13.8782C94.1913 12.0329 95.5537 10.5912 97.2981 9.55325C99.0425 8.51525 101.061 7.99625 103.353 7.99625C105.703 7.99625 107.75 8.52246 109.495 9.57487C111.239 10.6273 112.594 12.0834 113.56 13.9431C114.526 15.7885 115.009 17.9149 115.009 20.3225C115.009 22.7445 114.519 24.8854 113.538 26.7451C112.573 28.5905 111.217 30.0393 109.473 31.0917C107.729 32.1297 105.689 32.6488 103.353 32.6488ZM103.353 27.7615C105.429 27.7615 106.972 27.0695 107.981 25.6855C108.99 24.3015 109.495 22.5138 109.495 20.3225C109.495 18.0591 108.983 16.257 107.959 14.9162C106.936 13.5611 105.4 12.8835 103.353 12.8835C101.955 12.8835 100.801 13.2007 99.8931 13.835C98.9993 14.4549 98.3361 15.3271 97.9036 16.4516C97.4711 17.5617 97.2549 18.852 97.2549 20.3225C97.2549 22.5859 97.7667 24.3952 98.7902 25.7504C99.8282 27.0911 101.349 27.7615 103.353 27.7615Z" fill="white"/>
</svg>
